HIERARCHY
ROOT Hips
{
	OFFSET -0.344974 88.921463 2.371774
	CHANNELS 6 Xposition Yposition Zposition Zrotation Xrotation Yrotation
	JOINT Spine
	{
		OFFSET 0.000000 8.814247 -2.080106
		CHANNELS 3 Zrotation Xrotation Yrotation
		JOINT Spine1
		{
			OFFSET 0.000000 8.844139 0.000001
			CHANNELS 3 Zrotation Xrotation Yrotation
			JOINT Spine2
			{
				OFFSET 0.000000 11.682266 0.000002
				CHANNELS 3 Zrotation Xrotation Yrotation
				JOINT Spine3
				{
					OFFSET 0.000000 11.746704 0.000002
					CHANNELS 3 Zrotation Xrotation Yrotation
					JOINT Neck
					{
						OFFSET 0.000000 17.658264 0.000003
						CHANNELS 3 Zrotation Xrotation Yrotation
						JOINT Neck1
						{
							OFFSET 0.000000 5.101517 0.000001
							CHANNELS 3 Zrotation Xrotation Yrotation
							JOINT Head
							{
								OFFSET 0.000000 5.101517 0.000001
								CHANNELS 3 Zrotation Xrotation Yrotation
								JOINT HeadEnd
								{
									OFFSET 0.000000 11.655090 0.000002
									CHANNELS 3 Xrotation Yrotation Zrotation
									End Site
									{
										OFFSET 0.000000 3.496521 0.000001
									}
								}
							}
						}
					}
					JOINT RightShoulder
					{
						OFFSET -2.625389 11.175217 0.000002
						CHANNELS 3 Zrotation Xrotation Yrotation
						JOINT RightArm
						{
							OFFSET -10.434713 0.000000 0.000000
							CHANNELS 3 Zrotation Xrotation Yrotation
							JOINT RightForeArm
							{
								OFFSET -29.628416 0.000000 0.000000
								CHANNELS 3 Zrotation Xrotation Yrotation
								JOINT RightHand
								{
									OFFSET -22.857605 0.000000 0.000000
									CHANNELS 3 Zrotation Xrotation Yrotation
									JOINT RightHandThumb1
									{
										OFFSET -3.959564 -2.867325 2.944291
										CHANNELS 3 Zrotation Xrotation Yrotation
										JOINT RightHandThumb2
										{
											OFFSET -2.445450 -0.174744 2.283510
											CHANNELS 3 Zrotation Xrotation Yrotation
											JOINT RightHandThumb3
											{
												OFFSET -2.741867 -0.195923 2.560300
												CHANNELS 3 Zrotation Xrotation Yrotation
												JOINT RightHandThumb4
												{
													OFFSET -2.297241 -0.164139 2.145116
													CHANNELS 3 Xrotation Yrotation Zrotation
													End Site
													{
														OFFSET -0.689171 -0.049240 0.643535
													}
												}
											}
										}
									}
									JOINT RightHandIndex1
									{
										OFFSET -10.030891 -0.086746 2.345279
										CHANNELS 3 Zrotation Xrotation Yrotation
										JOINT RightHandIndex2
										{
											OFFSET -4.061089 0.000000 0.000000
											CHANNELS 3 Zrotation Xrotation Yrotation
											JOINT RightHandIndex3
											{
												OFFSET -3.248871 0.000000 0.000000
												CHANNELS 3 Zrotation Xrotation Yrotation
												JOINT RightHandIndex4
												{
													OFFSET -2.639709 0.000000 0.000000
													CHANNELS 3 Xrotation Yrotation Zrotation
													End Site
													{
														OFFSET -0.791916 0.000000 0.000000
													}
												}
											}
										}
									}
									JOINT RightHandMiddle1
									{
										OFFSET -9.502953 0.104111 0.006768
										CHANNELS 3 Zrotation Xrotation Yrotation
										JOINT RightHandMiddle2
										{
											OFFSET -4.568726 0.000000 0.000000
											CHANNELS 3 Zrotation Xrotation Yrotation
											JOINT RightHandMiddle3
											{
												OFFSET -3.654984 0.000000 0.000000
												CHANNELS 3 Zrotation Xrotation Yrotation
												JOINT RightHandMiddle4
												{
													OFFSET -2.741234 0.000000 0.000000
													CHANNELS 3 Xrotation Yrotation Zrotation
													End Site
													{
														OFFSET -0.822372 0.000000 0.000000
													}
												}
											}
										}
									}
									JOINT RightHandRing1
									{
										OFFSET -8.921707 0.086746 -2.267442
										CHANNELS 3 Zrotation Xrotation Yrotation
										JOINT RightHandRing2
										{
											OFFSET -4.061089 0.000000 0.000000
											CHANNELS 3 Zrotation Xrotation Yrotation
											JOINT RightHandRing3
											{
												OFFSET -3.654984 0.000000 0.000000
												CHANNELS 3 Zrotation Xrotation Yrotation
												JOINT RightHandRing4
												{
													OFFSET -2.741234 0.000000 0.000000
													CHANNELS 3 Xrotation Yrotation Zrotation
													End Site
													{
														OFFSET -0.822372 0.000000 0.000000
													}
												}
											}
										}
									}
									JOINT RightHandPinky1
									{
										OFFSET -7.976997 -0.173508 -4.467198
										CHANNELS 3 Zrotation Xrotation Yrotation
										JOINT RightHandPinky2
										{
											OFFSET -3.350395 0.000000 0.000000
											CHANNELS 3 Zrotation Xrotation Yrotation
											JOINT RightHandPinky3
											{
												OFFSET -2.842766 0.000000 0.000000
												CHANNELS 3 Zrotation Xrotation Yrotation
												JOINT RightHandPinky4
												{
													OFFSET -2.639709 0.000000 0.000000
													CHANNELS 3 Xrotation Yrotation Zrotation
													End Site
													{
														OFFSET -0.791916 0.000000 0.000000
													}
												}
											}
										}
									}
									JOINT RightForeArmEnd
									{
										OFFSET 0.000000 0.000000 0.000000
										CHANNELS 3 Xrotation Yrotation Zrotation
										End Site
										{
											OFFSET 0.000000 0.100006 0.000000
										}
									}
								}
								JOINT RightArmEnd
								{
									OFFSET 0.000000 0.000000 0.000000
									CHANNELS 3 Xrotation Yrotation Zrotation
									End Site
									{
										OFFSET 0.000000 0.100006 0.000000
									}
								}
							}
						}
					}
					JOINT LeftShoulder
					{
						OFFSET 2.625389 11.175217 0.000002
						CHANNELS 3 Zrotation Xrotation Yrotation
						JOINT LeftArm
						{
							OFFSET 10.813633 0.000000 0.000000
							CHANNELS 3 Zrotation Xrotation Yrotation
							JOINT LeftForeArm
							{
								OFFSET 28.724777 0.000000 0.000000
								CHANNELS 3 Zrotation Xrotation Yrotation
								JOINT LeftHand
								{
									OFFSET 25.716164 -0.644379 -0.328871
									CHANNELS 3 Zrotation Xrotation Yrotation
									JOINT LeftHandThumb1
									{
										OFFSET 3.959564 -2.867325 2.944291
										CHANNELS 3 Zrotation Xrotation Yrotation
										JOINT LeftHandThumb2
										{
											OFFSET 2.445450 -0.174744 2.283510
											CHANNELS 3 Zrotation Xrotation Yrotation
											JOINT LeftHandThumb3
											{
												OFFSET 2.741867 -0.195923 2.560300
												CHANNELS 3 Zrotation Xrotation Yrotation
												JOINT LeftHandThumb4
												{
													OFFSET 2.262680 -0.161682 2.112847
													CHANNELS 3 Xrotation Yrotation Zrotation
													End Site
													{
														OFFSET 0.678802 -0.048508 0.633854
													}
												}
											}
										}
									}
									JOINT LeftHandIndex1
									{
										OFFSET 10.030891 -0.086746 2.345280
										CHANNELS 3 Zrotation Xrotation Yrotation
										JOINT LeftHandIndex2
										{
											OFFSET 4.061089 0.000000 0.000000
											CHANNELS 3 Zrotation Xrotation Yrotation
											JOINT LeftHandIndex3
											{
												OFFSET 3.248871 0.000000 0.000000
												CHANNELS 3 Zrotation Xrotation Yrotation
												JOINT LeftHandIndex4
												{
													OFFSET 2.639709 0.000000 0.000000
													CHANNELS 3 Xrotation Yrotation Zrotation
													End Site
													{
														OFFSET 0.791916 0.000000 0.000000
													}
												}
											}
										}
									}
									JOINT LeftHandMiddle1
									{
										OFFSET 9.502953 0.104095 0.006768
										CHANNELS 3 Zrotation Xrotation Yrotation
										JOINT LeftHandMiddle2
										{
											OFFSET 4.568726 0.000000 -0.000000
											CHANNELS 3 Zrotation Xrotation Yrotation
											JOINT LeftHandMiddle3
											{
												OFFSET 3.654984 0.000000 -0.000000
												CHANNELS 3 Zrotation Xrotation Yrotation
												JOINT LeftHandMiddle4
												{
													OFFSET 2.741234 0.000000 -0.000000
													CHANNELS 3 Xrotation Yrotation Zrotation
													End Site
													{
														OFFSET 0.822372 0.000000 0.000000
													}
												}
											}
										}
									}
									JOINT LeftHandRing1
									{
										OFFSET 8.921707 0.086746 -2.267442
										CHANNELS 3 Zrotation Xrotation Yrotation
										JOINT LeftHandRing2
										{
											OFFSET 4.061089 0.000000 0.000000
											CHANNELS 3 Zrotation Xrotation Yrotation
											JOINT LeftHandRing3
											{
												OFFSET 3.654984 0.000000 0.000000
												CHANNELS 3 Zrotation Xrotation Yrotation
												JOINT LeftHandRing4
												{
													OFFSET 2.741234 0.000000 0.000000
													CHANNELS 3 Xrotation Yrotation Zrotation
													End Site
													{
														OFFSET 0.822372 0.000000 0.000000
													}
												}
											}
										}
									}
									JOINT LeftHandPinky1
									{
										OFFSET 7.976997 -0.173508 -4.467198
										CHANNELS 3 Zrotation Xrotation Yrotation
										JOINT LeftHandPinky2
										{
											OFFSET 3.350395 0.000000 0.000000
											CHANNELS 3 Zrotation Xrotation Yrotation
											JOINT LeftHandPinky3
											{
												OFFSET 2.842766 0.000000 0.000000
												CHANNELS 3 Zrotation Xrotation Yrotation
												JOINT LeftHandPinky4
												{
													OFFSET 2.639709 0.000000 0.000000
													CHANNELS 3 Xrotation Yrotation Zrotation
													End Site
													{
														OFFSET 0.791916 0.000000 0.000000
													}
												}
											}
										}
									}
									JOINT LeftForeArmEnd
									{
										OFFSET 0.000000 0.000000 0.000000
										CHANNELS 3 Xrotation Yrotation Zrotation
										End Site
										{
											OFFSET 0.000000 0.100006 0.000000
										}
									}
								}
								JOINT LeftArmEnd
								{
									OFFSET 0.000000 0.000000 0.000000
									CHANNELS 3 Xrotation Yrotation Zrotation
									End Site
									{
										OFFSET 0.000000 0.100006 0.000000
									}
								}
							}
						}
					}
				}
			}
		}
	}
	JOINT RightUpLeg
	{
		OFFSET -11.289942 0.000000 0.000000
		CHANNELS 3 Zrotation Xrotation Yrotation
		JOINT RightLeg
		{
			OFFSET 0.000000 -38.200317 -0.000006
			CHANNELS 3 Zrotation Xrotation Yrotation
			JOINT RightFoot
			{
				OFFSET 0.000000 -39.900848 -0.000006
				CHANNELS 3 Zrotation Xrotation Yrotation
				JOINT RightToeBase
				{
					OFFSET 0.000000 0.000003 15.261642
					CHANNELS 3 Zrotation Xrotation Yrotation
					JOINT RightToeBaseEnd
					{
						OFFSET 0.000000 0.000002 7.370708
						CHANNELS 3 Xrotation Yrotation Zrotation
						End Site
						{
							OFFSET 0.000000 -0.000001 2.211212
						}
					}
				}
				JOINT RightLegEnd
				{
					OFFSET 0.000000 0.000000 0.000000
					CHANNELS 3 Xrotation Yrotation Zrotation
					End Site
					{
						OFFSET 0.000000 0.100000 0.000000
					}
				}
			}
			JOINT RightUpLegEnd
			{
				OFFSET 0.000000 0.000000 0.000000
				CHANNELS 3 Xrotation Yrotation Zrotation
				End Site
				{
					OFFSET 0.000000 0.099998 0.000000
				}
			}
		}
	}
	JOINT LeftUpLeg
	{
		OFFSET 11.315661 0.000000 0.000000
		CHANNELS 3 Zrotation Xrotation Yrotation
		JOINT LeftLeg
		{
			OFFSET 0.000000 -38.200317 -0.000006
			CHANNELS 3 Zrotation Xrotation Yrotation
			JOINT LeftFoot
			{
				OFFSET 0.000000 -39.900848 -0.000006
				CHANNELS 3 Zrotation Xrotation Yrotation
				JOINT LeftToeBase
				{
					OFFSET 0.000000 0.000003 15.261642
					CHANNELS 3 Zrotation Xrotation Yrotation
					JOINT LeftToeBaseEnd
					{
						OFFSET 0.000000 0.000001 7.539995
						CHANNELS 3 Xrotation Yrotation Zrotation
						End Site
						{
							OFFSET 0.000000 -0.000001 2.261999
						}
					}
				}
				JOINT LeftLegEnd
				{
					OFFSET 0.000000 0.000000 0.000000
					CHANNELS 3 Xrotation Yrotation Zrotation
					End Site
					{
						OFFSET 0.000000 0.100000 0.000000
					}
				}
			}
			JOINT LeftUpLegEnd
			{
				OFFSET 0.000000 0.000000 0.000000
				CHANNELS 3 Xrotation Yrotation Zrotation
				End Site
				{
					OFFSET 0.000000 0.099998 0.000000
				}
			}
		}
	}
}
MOTION
Frames: 5
Frame Time: 0.041667
-1.505412 88.044075 5.267153 -1.512011 -15.155083 -0.928710 1.613193 8.264518 -0.141736 0.897276 0.626207 -0.330668 -2.286504 8.656855 1.534362 -1.538427 6.019807 0.850350 1.712004 11.345484 1.385190 -0.253456 -0.474456 0.944876 -0.886665 -20.170840 -0.522064 -0.000000 -0.000000 0.000000 -0.060478 0.130827 14.467655 48.973785 49.217343 25.451189 -0.636092 -9.455906 29.654523 9.036824 -7.607431 -8.467175 7.292328 2.296955 -3.349251 0.515329 1.933116 -27.813007 0.256518 1.366394 -19.224952 0.000001 0.000002 0.000002 18.085383 0.034831 -7.811873 11.295541 0.150210 0.257141 11.066170 0.142576 0.193040 -0.000002 0.000001 -0.000001 16.871995 0.013317 -9.030127 10.400292 0.058587 0.103782 10.500640 0.054277 0.081108 0.000000 -0.000000 -0.000001 16.806433 0.021213 -9.284873 10.769883 -0.110372 -0.171600 10.811760 -0.068277 -0.119857 0.000000 -0.000000 0.000001 15.324962 -0.027094 -10.057337 10.592976 -0.323580 -0.635306 10.413468 -0.272784 -0.496826 0.000000 -0.000001 -0.000001 -0.000002 -0.000001 0.000000 0.000001 0.000001 0.000000 2.149770 0.102416 -7.987291 -62.076837 21.226809 -7.845949 -1.696457 -7.691927 -37.669217 2.810330 -19.016162 20.311454 -5.789253 2.038346 2.689181 -0.403197 1.714653 24.430338 -0.203954 1.214957 17.017360 0.000000 0.000001 0.000004 -11.619506 0.031836 10.797393 -8.512609 -0.140266 0.380887 -8.405421 -0.134573 0.363606 -0.000000 -0.000000 0.000001 -10.824125 0.021177 11.122229 -7.848879 -0.054671 0.163231 -7.805932 -0.037691 0.115222 -0.000000 0.000000 0.000000 -11.949852 -0.000547 11.258739 -8.505684 0.081442 -0.169934 -8.428182 0.056720 -0.164959 0.000002 -0.000000 0.000001 -12.893144 0.052721 10.675082 -8.977114 0.184373 -0.509064 -9.008094 0.157184 -0.352445 0.000000 -0.000000 0.000001 0.000000 -0.000001 -0.000001 0.000001 -0.000001 0.000001 0.645623 16.040079 -4.275040 -0.023532 9.917289 -0.721644 -1.109120 15.768803 -6.512907 -0.337818 -18.080957 0.973299 0.000001 -0.000000 -0.000000 0.000002 0.000000 -0.000001 -0.000001 0.000001 -0.000000 4.453598 12.277551 -5.001982 0.044549 16.470503 0.661755 -0.632088 12.569345 5.323242 0.690051 -19.948179 -0.501166 0.000001 0.000000 0.000000 0.000003 -0.000000 -0.000000 -0.000001 0.000000 0.000000 
-1.497485 88.033272 5.317363 -1.515115 -15.189682 -0.970119 1.605100 8.270864 -0.141785 0.862048 0.648799 -0.326259 -2.262854 8.728962 1.468561 -1.532594 6.016903 0.826762 1.768322 11.353176 1.426849 -0.250799 -0.492131 1.017476 -0.884267 -20.172064 -0.503811 -0.000000 0.000000 0.000000 -0.005699 0.160719 14.399613 49.255223 49.078280 25.192080 -0.615192 -9.479542 29.552053 8.753483 -7.897029 -8.433773 7.287515 2.294222 -3.344650 0.514769 1.932112 -27.797244 0.256425 1.366120 -19.220938 0.000002 0.000002 0.000002 18.021367 0.036538 -7.815594 11.322242 0.145792 0.245519 11.093553 0.138148 0.182144 -0.000001 0.000000 -0.000002 16.790567 0.013939 -9.023574 10.423854 0.056680 0.099452 10.518328 0.052936 0.077036 0.000001 0.000001 -0.000001 16.715583 0.020752 -9.249829 10.768360 -0.107693 -0.163852 10.807728 -0.066483 -0.114480 0.000001 0.000000 -0.000001 15.221302 -0.028485 -10.006847 10.572986 -0.314803 -0.613069 10.392114 -0.265874 -0.477613 0.000000 0.000001 -0.000001 0.000002 0.000001 0.000001 -0.000001 0.000003 0.000000 2.051621 0.105418 -7.993360 -62.307240 21.184906 -7.722681 -1.724954 -7.593361 -37.591742 2.903883 -19.352112 20.259391 -5.795582 2.041747 2.691789 -0.403338 1.714946 24.434795 -0.204065 1.215306 17.022418 0.000003 -0.000001 0.000003 -11.673433 0.030905 10.815850 -8.513210 -0.135572 0.361962 -8.407239 -0.130399 0.346908 -0.000000 0.000000 0.000000 -10.885371 0.020886 11.138269 -7.855643 -0.052649 0.155489 -7.812442 -0.036165 0.109097 0.000001 -0.000000 -0.000001 -12.062977 0.000914 11.243490 -8.526765 0.077938 -0.159152 -8.443819 0.054526 -0.157143 -0.000000 0.000000 -0.000001 -13.021681 0.055545 10.654863 -9.001267 0.175732 -0.472217 -9.026307 0.150300 -0.326255 -0.000001 0.000000 0.000000 0.000000 -0.000001 -0.000000 -0.000001 -0.000003 0.000001 0.610554 16.106167 -4.201748 -0.024270 9.904246 -0.723339 -1.113385 15.716293 -6.433525 -0.338715 -18.078625 0.973896 0.000001 0.000000 -0.000000 0.000002 -0.000000 -0.000000 -0.000000 0.000000 0.000000 4.433967 12.322885 -4.966692 0.043219 16.510749 0.660249 -0.628336 12.534893 5.403437 0.689641 -19.949055 -0.496003 0.000000 -0.000000 0.000000 -0.000002 -0.000000 0.000000 0.000001 -0.000000 0.000000 
-1.488726 88.023674 5.366805 -1.516218 -15.219634 -1.005341 1.596666 8.277759 -0.141955 0.829711 0.672236 -0.322690 -2.238907 8.797029 1.405402 -1.527866 6.016971 0.802952 1.821580 11.351148 1.462681 -0.249937 -0.509542 1.080120 -0.878747 -20.168131 -0.484160 -0.000000 0.000000 -0.000000 0.049830 0.189064 14.333133 49.552708 48.923795 24.900713 -0.592487 -9.496336 29.458773 8.494324 -8.198291 -8.410233 7.282488 2.291331 -3.339791 0.514187 1.931040 -27.780432 0.256299 1.365797 -19.216148 -0.000001 -0.000002 -0.000003 17.958483 0.038041 -7.824063 11.344779 0.141313 0.234500 11.116419 0.133571 0.171891 -0.000002 0.000000 -0.000001 16.708707 0.014475 -9.022074 10.444290 0.054775 0.095304 10.533426 0.051571 0.073128 0.000002 0.000001 0.000001 16.625725 0.020370 -9.221000 10.766724 -0.104895 -0.156459 10.803419 -0.064624 -0.109388 -0.000000 0.000001 -0.000002 15.125717 -0.029577 -9.965973 10.556351 -0.305673 -0.591346 10.374393 -0.258650 -0.458699 -0.000001 0.000001 -0.000002 0.000001 0.000000 0.000001 0.000001 0.000002 0.000002 1.960396 0.109024 -8.002923 -62.534145 21.183343 -7.579497 -1.748742 -7.482687 -37.525264 3.001281 -19.703619 20.210952 -5.802358 2.045261 2.694694 -0.403522 1.715335 24.440734 -0.204183 1.215704 17.028118 0.000010 0.000000 0.000002 -11.726574 0.030036 10.834000 -8.514048 -0.131000 0.344239 -8.408696 -0.126317 0.331336 0.000001 -0.000000 0.000000 -10.946208 0.020648 11.153547 -7.862000 -0.050723 0.148190 -7.819419 -0.034705 0.103399 0.000000 0.000000 -0.000000 -12.174711 0.002233 11.224900 -8.547576 0.074526 -0.148992 -8.459845 0.052369 -0.149755 0.000000 -0.000000 0.000000 -13.148965 0.057965 10.628778 -9.024959 0.167253 -0.437415 -9.043914 0.143519 -0.301909 0.000001 0.000000 0.000001 0.000001 0.000001 0.000000 0.000002 -0.000001 -0.000001 0.575005 16.169720 -4.135502 -0.024968 9.885052 -0.725309 -1.110782 15.668529 -6.364492 -0.340282 -18.077095 0.975453 0.000001 -0.000002 -0.000000 0.000001 -0.000001 -0.000000 0.000000 0.000000 0.000000 4.415261 12.362323 -4.929620 0.041905 16.551118 0.658412 -0.622273 12.504371 5.468824 0.687674 -19.952306 -0.491160 -0.000000 0.000000 0.000001 -0.000000 -0.000000 0.000000 0.000000 -0.000000 -0.000000 
-1.479305 88.015366 5.415039 -1.515565 -15.244024 -1.035031 1.587542 8.284070 -0.142281 0.800858 0.694988 -0.320038 -2.214904 8.860019 1.345053 -1.524424 6.019624 0.778971 1.874592 11.343127 1.490259 -0.250474 -0.525431 1.132456 -0.870426 -20.160850 -0.463751 -0.000000 -0.000000 -0.000000 0.106176 0.215522 14.269165 49.848462 48.762937 24.591768 -0.568734 -9.507378 29.375568 8.269089 -8.500742 -8.396960 7.278700 2.288563 -3.335530 0.513707 1.930156 -27.766567 0.256225 1.365591 -19.213215 0.000001 0.000001 -0.000001 17.906050 0.039386 -7.836891 11.365254 0.136838 0.224132 11.136968 0.128925 0.162348 0.000003 -0.000000 0.000001 16.637229 0.014947 -9.025047 10.464002 0.052893 0.091387 10.548237 0.050206 0.069424 -0.000000 -0.000001 -0.000001 16.548638 0.020073 -9.197514 10.768189 -0.102034 -0.149485 10.802192 -0.062718 -0.104601 0.000001 0.000000 -0.000001 15.048872 -0.030406 -9.932979 10.546506 -0.296341 -0.570467 10.363823 -0.251244 -0.440397 0.000001 -0.000000 -0.000000 -0.000006 0.000001 0.000000 0.000003 0.000001 0.000001 1.874993 0.113383 -8.015356 -62.745874 21.217016 -7.424518 -1.767222 -7.365779 -37.473003 3.086495 -20.058126 20.166075 -5.810336 2.048876 2.698157 -0.403804 1.715932 24.449885 -0.204354 1.216219 17.035684 0.000004 -0.000003 0.000002 -11.783865 0.029186 10.852755 -8.516699 -0.126637 0.328017 -8.411234 -0.122419 0.317106 0.000001 0.000000 -0.000001 -11.011360 0.020473 11.169187 -7.869755 -0.048918 0.141488 -7.828412 -0.033339 0.098221 -0.000001 -0.000000 -0.000002 -12.288725 0.003417 11.205666 -8.570340 0.071269 -0.139678 -8.478644 0.050310 -0.142942 0.000000 -0.000000 -0.000001 -13.278298 0.060024 10.600419 -9.051103 0.159149 -0.405463 -9.064111 0.137026 -0.279835 -0.000000 0.000000 0.000001 -0.000000 -0.000001 0.000002 -0.000003 0.000006 -0.000003 0.540237 16.229455 -4.076132 -0.025628 9.861394 -0.727549 -1.102511 15.625535 -6.305811 -0.342415 -18.076386 0.977798 -0.000000 -0.000000 -0.000001 0.000004 0.000000 -0.000000 0.000001 0.000000 0.000000 4.397899 12.396115 -4.890911 0.040672 16.589191 0.656215 -0.614663 12.478550 5.519107 0.684416 -19.957572 -0.486568 0.000000 -0.000000 -0.000000 0.000001 -0.000000 -0.000000 0.000000 0.000000 -0.000000 
-1.469281 88.008438 5.461870 -1.513679 -15.262802 -1.060117 1.577622 8.289371 -0.142854 0.775924 0.717011 -0.318289 -2.191484 8.916919 1.287583 -1.522209 6.024463 0.754979 1.929302 11.331370 1.508711 -0.251869 -0.539261 1.175269 -0.859901 -20.151095 -0.443326 0.000000 0.000000 -0.000000 0.162504 0.239894 14.209415 50.128070 48.602933 24.277788 -0.544372 -9.513321 29.302833 8.078091 -8.796747 -8.393993 7.276333 2.286079 -3.332029 0.513339 1.929506 -27.756260 0.256212 1.365539 -19.212378 0.000000 0.000001 0.000004 17.865446 0.040635 -7.853701 11.383409 0.132453 0.214502 11.155189 0.124332 0.153629 0.000001 -0.000000 0.000001 16.578903 0.015379 -9.032263 10.482944 0.051069 0.087764 10.562573 0.048863 0.066000 -0.000000 -0.000000 -0.000001 16.488399 0.019842 -9.179140 10.773191 -0.099166 -0.143012 10.804521 -0.060820 -0.100161 0.000001 -0.000001 -0.000002 14.994654 -0.031075 -9.907096 10.544019 -0.286981 -0.550782 10.360888 -0.243822 -0.423062 -0.000001 0.000000 -0.000001 -0.000003 -0.000001 -0.000000 -0.000003 0.000003 0.000000 1.795132 0.118132 -8.030336 -62.936553 21.278522 -7.262989 -1.780632 -7.247521 -37.434740 3.151968 -20.405634 20.124094 -5.819703 2.052544 2.702181 -0.404207 1.716768 24.462570 -0.204581 1.216894 17.045461 0.000004 0.000000 0.000000 -11.846795 0.028320 10.874200 -8.521446 -0.122561 0.313467 -8.415370 -0.118787 0.304353 0.000000 -0.000000 -0.000000 -11.082403 0.020339 11.187367 -7.879538 -0.047253 0.135468 -7.839927 -0.032075 0.093609 0.000000 -0.000000 -0.000002 -12.406678 0.004499 11.189365 -8.596286 0.068191 -0.131332 -8.501460 0.048380 -0.136787 0.000001 -0.000000 0.000000 -13.411732 0.061819 10.574390 -9.081665 0.151540 -0.376748 -9.089006 0.130939 -0.260214 -0.000001 -0.000000 0.000001 0.000001 0.000001 0.000000 -0.000002 -0.000000 -0.000001 0.506735 16.284503 -4.023616 -0.026254 9.834809 -0.730057 -1.089494 15.586987 -6.256161 -0.344987 -18.076516 0.980799 -0.000000 -0.000001 -0.000000 0.000001 0.000000 -0.000000 0.000001 0.000000 -0.000000 4.382244 12.424483 -4.850548 0.039549 16.623743 0.653765 -0.605857 12.457443 5.554762 0.680204 -19.964568 -0.482270 0.000000 0.000000 -0.000000 -0.000001 -0.000000 -0.000000 -0.000000 0.000000 -0.000000 
